<?xml version="1.0" encoding="UTF-8" standalone="no"?>
<!-- Uploaded to: SVG Repo, www.svgrepo.com, Generator: SVG Repo Mixer Tools -->

<svg
   fill="#000000"
   version="1.1"
   id="Capa_1"
   width="800px"
   height="800px"
   viewBox="0 0 550.8 550.799"
   xml:space="preserve"
   sodipodi:docname="heart-black-shape-svgrepo-com.svg"
   inkscape:version="1.3.2 (091e20e, 2023-11-25)"
   xmlns:inkscape="http://www.inkscape.org/namespaces/inkscape"
   xmlns:sodipodi="http://sodipodi.sourceforge.net/DTD/sodipodi-0.dtd"
   xmlns="http://www.w3.org/2000/svg"
   xmlns:svg="http://www.w3.org/2000/svg"><defs
   id="defs2" /><sodipodi:namedview
   id="namedview2"
   pagecolor="#505050"
   bordercolor="#eeeeee"
   borderopacity="1"
   inkscape:showpageshadow="0"
   inkscape:pageopacity="0"
   inkscape:pagecheckerboard="0"
   inkscape:deskcolor="#d1d1d1"
   inkscape:zoom="0.295"
   inkscape:cx="400"
   inkscape:cy="400"
   inkscape:window-width="1312"
   inkscape:window-height="449"
   inkscape:window-x="0"
   inkscape:window-y="25"
   inkscape:window-maximized="0"
   inkscape:current-layer="Capa_1" />
<g
   id="g2"
   style="fill:#ff6835;fill-opacity:1">
	<g
   id="g1"
   style="fill:#ff6835;fill-opacity:1">
		<path
   d="M398.853,31.653c-50.876,0-95.876,31.151-123.453,69.542c-27.576-38.391-72.577-69.542-123.452-69.542    C68.03,31.653,0,99.683,0,183.6c0,8.74,0.777,17.295,2.197,25.631c0,0.018,0,0.03,0,0.049    c0,174.75,273.203,309.867,273.203,309.867S548.603,388.62,548.603,209.28c0-0.019,0-0.031,0-0.049    c1.42-8.335,2.197-16.891,2.197-25.631C550.8,99.683,482.77,31.653,398.853,31.653z"
   id="path1"
   style="fill:#ff6835;fill-opacity:1" />
	</g>
</g>
</svg>
